<svg width="205" height="206" viewBox="0 0 205 206" fill="none" xmlns="http://www.w3.org/2000/svg">
<g id="blueAlien" filter="url(#filter0_d)">
<path id="Vector" d="M72.5633 160.354C97.5036 173.337 128.151 163.827 141.016 139.114C153.881 114.401 144.092 83.8416 119.151 70.8585C94.2111 57.8754 63.5639 67.3847 50.6989 92.098C37.834 116.811 47.623 147.37 72.5633 160.354Z" fill="#2F2E41"/>
<path id="Vector_2" d="M63.3808 136.066L35.7253 135.531L35.5407 150.884L63.1962 151.419L63.3808 136.066Z" fill="#2F2E41"/>
<path id="Vector_3" d="M39.0804 151.159C41.4034 149.879 40.4667 143.824 36.9883 137.636C33.5098 131.448 28.8067 127.47 26.4837 128.75C24.1607 130.03 25.0974 136.085 28.5758 142.273C32.0543 148.461 36.7574 152.439 39.0804 151.159Z" fill="#2F2E41"/>
<path id="Vector_4" d="M97.7252 153.945L85.2545 162.902L101.555 185.249L114.026 176.292L97.7252 153.945Z" fill="#2F2E41"/>
<path id="Vector_5" d="M112.604 186.015C119.669 185.315 125.165 182.61 124.882 179.973C124.598 177.335 118.641 175.765 111.577 176.465C104.513 177.165 99.0162 179.87 99.2999 182.507C99.5836 185.145 105.54 186.715 112.604 186.015Z" fill="#2F2E41"/>
<path id="Vector_6" d="M90.4325 118.308C98.9564 122.745 109.431 119.495 113.828 111.049C118.225 102.603 114.879 92.1586 106.355 87.7213C97.8311 83.2841 87.3567 86.5341 82.9598 94.9804C78.563 103.427 81.9086 113.871 90.4325 118.308Z" fill="white"/>
<path id="Vector_7" d="M103.674 102.037C106.707 101.096 108.375 97.8646 107.399 94.8192C106.424 91.7737 103.174 90.0677 100.142 91.0087C97.1088 91.9498 95.4411 95.1814 96.4166 98.2268C97.3922 101.272 100.642 102.978 103.674 102.037Z" fill="#3F3D56"/>
<path id="Vector_8" d="M156.823 85.4701C166.125 69.2574 159.021 47.725 140.955 37.3761C122.888 27.0272 100.701 31.7807 91.3976 47.9934C82.0947 64.206 92.9627 74.6475 111.029 84.9965C129.096 95.3454 147.52 101.683 156.823 85.4701Z" fill="#6C63FF"/>
<path id="Vector_9" d="M145.314 171.133C149.6 170.152 150.446 158.329 147.204 144.725C143.962 131.121 137.859 120.887 133.574 121.868C129.288 122.848 128.442 134.671 131.684 148.275C134.926 161.88 141.028 172.113 145.314 171.133Z" fill="#2F2E41"/>
<path id="Vector_10" d="M48.6734 105.063C61.6768 99.9155 70.8765 92.441 69.2215 88.3679C67.5665 84.2949 55.6835 85.1658 42.68 90.3131C29.6766 95.4604 20.4769 102.935 22.1319 107.008C23.7869 111.081 35.6699 110.21 48.6734 105.063Z" fill="#2F2E41"/>
<path id="Vector_11" d="M99.0803 139.697C98.1841 142.612 96.158 145.044 93.4476 146.46C90.7373 147.875 87.5648 148.157 84.6279 147.243C81.691 146.33 79.2304 144.296 77.7874 141.59C76.3444 138.883 76.0372 135.724 76.9333 132.81L76.9399 132.788C78.812 126.72 84.1561 127.01 90.2699 128.918C96.3838 130.826 100.952 133.629 99.0803 139.697Z" fill="white"/>
</g>
<defs>
<filter id="filter0_d" x="-3.56226" y="0.725098" width="212.124" height="212.55" filterUnits="userSpaceOnUse" color-interpolation-filters="sRGB">
<feFlood flood-opacity="0" result="BackgroundImageFix"/>
<feColorMatrix in="SourceAlpha" type="matrix" values="0 0 0 0 0 0 0 0 0 0 0 0 0 0 0 0 0 0 127 0"/>
<feOffset dy="4"/>
<feGaussianBlur stdDeviation="2"/>
<feColorMatrix type="matrix" values="0 0 0 0 0 0 0 0 0 0 0 0 0 0 0 0 0 0 0.25 0"/>
<feBlend mode="normal" in2="BackgroundImageFix" result="effect1_dropShadow"/>
<feBlend mode="normal" in="SourceGraphic" in2="effect1_dropShadow" result="shape"/>
</filter>
</defs>
</svg>
