<svg xmlns="http://www.w3.org/2000/svg" viewBox="0 0 512 512"><path d="M75.5,452A15.51,15.51,0,0,0,91,436.5V121H55A55.06,55.06,0,0,0,0,176V436.5a75.45,75.45,0,0,0,30.5,60.59V497A45.05,45.05,0,0,1,75.5,452Z"/><path d="M457,0H176a55.06,55.06,0,0,0-55,55V436.5A45.55,45.55,0,0,1,75.5,482a15,15,0,0,0,0,30H417a95.11,95.11,0,0,0,95-95V55A55.06,55.06,0,0,0,457,0ZM206.5,141h140a15,15,0,0,1,0,30h-140a15,15,0,0,1,0-30Zm220,230h-220a15,15,0,0,1,0-30h220a15,15,0,0,1,0,30Zm0-105.88h-220a15,15,0,0,1,0-30h220a15,15,0,0,1,0,30Z"/></svg>